<svg viewBox="-16 -32 880 192" width="880" height="192" xmlns="http://www.w3.org/2000/svg"><desc>Generated with https://github.com/Platane/snk</desc><style>:root{--cb:#1b1f230a;--cs:#FFCC00;--ce:#ebedf0;--c0:#ebedf0;--c1:#fee975;--c2:#fedc56;--c3:#ffcc00;--c4:#ffaa00}.c{shape-rendering:geometricPrecision;fill:var(--ce);stroke-width:1px;stroke:var(--cb);animation:none 28900ms linear infinite;width:12px;height:12px}@keyframes c0{2.41%{fill:var(--c1)}2.43%,100%{fill:var(--ce)}}.c.c0{fill:var(--c1);animation-name:c0}@keyframes c1{23.52%{fill:var(--c1)}23.54%,100%{fill:var(--ce)}}.c.c1{fill:var(--c1);animation-name:c1}@keyframes c2{10.72%{fill:var(--c1)}10.74%,100%{fill:var(--ce)}}.c.c2{fill:var(--c1);animation-name:c2}@keyframes c3{5.18%{fill:var(--c1)}5.2%,100%{fill:var(--ce)}}.c.c3{fill:var(--c1);animation-name:c3}@keyframes c4{10.37%{fill:var(--c1)}10.39%,100%{fill:var(--ce)}}.c.c4{fill:var(--c1);animation-name:c4}@keyframes c5{64%{fill:var(--c2)}64.02%,100%{fill:var(--ce)}}.c.c5{fill:var(--c2);animation-name:c5}@keyframes c6{94.45%{fill:var(--c4)}94.47%,100%{fill:var(--ce)}}.c.c6{fill:var(--c4);animation-name:c6}@keyframes c7{61.58%{fill:var(--c2)}61.6%,100%{fill:var(--ce)}}.c.c7{fill:var(--c2);animation-name:c7}@keyframes c8{5.87%{fill:var(--c1)}5.89%,100%{fill:var(--ce)}}.c.c8{fill:var(--c1);animation-name:c8}@keyframes c9{22.83%{fill:var(--c1)}22.85%,100%{fill:var(--ce)}}.c.c9{fill:var(--c1);animation-name:c9}@keyframes ca{63.31%{fill:var(--c2)}63.33%,100%{fill:var(--ce)}}.c.ca{fill:var(--c2);animation-name:ca}@keyframes cb{62.97%{fill:var(--c2)}62.99%,100%{fill:var(--ce)}}.c.cb{fill:var(--c2);animation-name:cb}@keyframes cc{12.1%{fill:var(--c1)}12.12%,100%{fill:var(--ce)}}.c.cc{fill:var(--c1);animation-name:cc}@keyframes cd{6.91%{fill:var(--c1)}6.93%,100%{fill:var(--ce)}}.c.cd{fill:var(--c1);animation-name:cd}@keyframes ce{6.56%{fill:var(--c1)}6.58%,100%{fill:var(--ce)}}.c.ce{fill:var(--c1);animation-name:ce}@keyframes cf{6.22%{fill:var(--c1)}6.24%,100%{fill:var(--ce)}}.c.cf{fill:var(--c1);animation-name:cf}@keyframes cg{60.54%{fill:var(--c2)}60.56%,100%{fill:var(--ce)}}.c.cg{fill:var(--c2);animation-name:cg}@keyframes ch{8.99%{fill:var(--c1)}9.01%,100%{fill:var(--ce)}}.c.ch{fill:var(--c1);animation-name:ch}@keyframes ci{8.64%{fill:var(--c1)}8.66%,100%{fill:var(--ce)}}.c.ci{fill:var(--c1);animation-name:ci}@keyframes cj{7.26%{fill:var(--c1)}7.28%,100%{fill:var(--ce)}}.c.cj{fill:var(--c1);animation-name:cj}@keyframes ck{7.95%{fill:var(--c1)}7.97%,100%{fill:var(--ce)}}.c.ck{fill:var(--c1);animation-name:ck}@keyframes cl{7.6%{fill:var(--c1)}7.62%,100%{fill:var(--ce)}}.c.cl{fill:var(--c1);animation-name:cl}@keyframes cm{13.48%{fill:var(--c1)}13.5%,100%{fill:var(--ce)}}.c.cm{fill:var(--c1);animation-name:cm}@keyframes cn{15.21%{fill:var(--c1)}15.23%,100%{fill:var(--ce)}}.c.cn{fill:var(--c1);animation-name:cn}@keyframes co{16.95%{fill:var(--c1)}16.97%,100%{fill:var(--ce)}}.c.co{fill:var(--c1);animation-name:co}@keyframes cp{17.64%{fill:var(--c1)}17.66%,100%{fill:var(--ce)}}.c.cp{fill:var(--c1);animation-name:cp}@keyframes cq{33.9%{fill:var(--c1)}33.92%,100%{fill:var(--ce)}}.c.cq{fill:var(--c1);animation-name:cq}@keyframes cr{35.63%{fill:var(--c1)}35.65%,100%{fill:var(--ce)}}.c.cr{fill:var(--c1);animation-name:cr}@keyframes cs{49.82%{fill:var(--c2)}49.84%,100%{fill:var(--ce)}}.c.cs{fill:var(--c2);animation-name:cs}@keyframes ct{36.32%{fill:var(--c1)}36.34%,100%{fill:var(--ce)}}.c.ct{fill:var(--c1);animation-name:ct}@keyframes cu{37.71%{fill:var(--c1)}37.73%,100%{fill:var(--ce)}}.c.cu{fill:var(--c1);animation-name:cu}@keyframes cv{38.05%{fill:var(--c1)}38.07%,100%{fill:var(--ce)}}.c.cv{fill:var(--c1);animation-name:cv}@keyframes cw{75.77%{fill:var(--c3)}75.79%,100%{fill:var(--ce)}}.c.cw{fill:var(--c3);animation-name:cw}@keyframes cx{75.42%{fill:var(--c3)}75.44%,100%{fill:var(--ce)}}.c.cx{fill:var(--c3);animation-name:cx}@keyframes cy{77.15%{fill:var(--c3)}77.17%,100%{fill:var(--ce)}}.c.cy{fill:var(--c3);animation-name:cy}@keyframes cz{83.03%{fill:var(--c4)}83.05%,100%{fill:var(--ce)}}.c.cz{fill:var(--c4);animation-name:cz}@keyframes c10{49.12%{fill:var(--c2)}49.14%,100%{fill:var(--ce)}}.c.c10{fill:var(--c2);animation-name:c10}@keyframes c11{38.4%{fill:var(--c1)}38.42%,100%{fill:var(--ce)}}.c.c11{fill:var(--c1);animation-name:c11}@keyframes c12{40.82%{fill:var(--c1)}40.84%,100%{fill:var(--ce)}}.c.c12{fill:var(--c1);animation-name:c12}@keyframes c13{39.78%{fill:var(--c1)}39.8%,100%{fill:var(--ce)}}.c.c13{fill:var(--c1);animation-name:c13}@keyframes c14{80.27%{fill:var(--c3)}80.29%,100%{fill:var(--ce)}}.c.c14{fill:var(--c3);animation-name:c14}@keyframes c15{43.93%{fill:var(--c1)}43.95%,100%{fill:var(--ce)}}.c.c15{fill:var(--c1);animation-name:c15}@keyframes c16{42.9%{fill:var(--c1)}42.92%,100%{fill:var(--ce)}}.c.c16{fill:var(--c1);animation-name:c16}@keyframes c17{43.24%{fill:var(--c1)}43.26%,100%{fill:var(--ce)}}.c.c17{fill:var(--c1);animation-name:c17}@keyframes c18{46.01%{fill:var(--c1)}46.03%,100%{fill:var(--ce)}}.c.c18{fill:var(--c1);animation-name:c18}@keyframes c19{46.36%{fill:var(--c1)}46.38%,100%{fill:var(--ce)}}.c.c19{fill:var(--c1);animation-name:c19}.u{transform-origin:0 0;transform:scale(0,1);animation:none linear 28900ms infinite}@keyframes u0{2.41%{transform:scale(0.000,1)}2.43%,5.18%{transform:scale(0.030,1)}5.2%,5.87%{transform:scale(0.061,1)}5.89%,6.22%{transform:scale(0.091,1)}6.24%,6.56%{transform:scale(0.121,1)}6.58%,6.91%{transform:scale(0.152,1)}6.93%,7.26%{transform:scale(0.182,1)}7.28%,7.6%{transform:scale(0.212,1)}7.62%,7.95%{transform:scale(0.242,1)}7.97%,8.64%{transform:scale(0.273,1)}8.66%,8.99%{transform:scale(0.303,1)}9.01%,10.37%{transform:scale(0.333,1)}10.39%,10.72%{transform:scale(0.364,1)}10.74%,12.1%{transform:scale(0.394,1)}12.12%,13.48%{transform:scale(0.424,1)}13.5%,15.21%{transform:scale(0.455,1)}15.23%,16.95%{transform:scale(0.485,1)}16.97%,17.64%{transform:scale(0.515,1)}17.66%,22.83%{transform:scale(0.545,1)}22.85%,23.52%{transform:scale(0.576,1)}23.54%,33.9%{transform:scale(0.606,1)}33.92%,35.63%{transform:scale(0.636,1)}35.65%,36.32%{transform:scale(0.667,1)}36.34%,37.71%{transform:scale(0.697,1)}37.73%,38.05%{transform:scale(0.727,1)}38.07%,38.4%{transform:scale(0.758,1)}38.42%,39.78%{transform:scale(0.788,1)}39.8%,40.82%{transform:scale(0.818,1)}40.84%,42.9%{transform:scale(0.848,1)}42.92%,43.24%{transform:scale(0.879,1)}43.26%,43.93%{transform:scale(0.909,1)}43.95%,46.01%{transform:scale(0.939,1)}46.03%,46.36%{transform:scale(0.970,1)}46.38%,100%{transform:scale(1.000,1)}}.u.u0{fill:var(--c1);animation-name:u0;transform-origin:0.0px 0}@keyframes u1{49.12%{transform:scale(0.000,1)}49.14%,49.82%{transform:scale(0.143,1)}49.84%,60.54%{transform:scale(0.286,1)}60.56%,61.58%{transform:scale(0.429,1)}61.6%,62.97%{transform:scale(0.571,1)}62.99%,63.31%{transform:scale(0.714,1)}63.33%,64%{transform:scale(0.857,1)}64.02%,100%{transform:scale(1.000,1)}}.u.u1{fill:var(--c2);animation-name:u1;transform-origin:608.3px 0}@keyframes u2{75.42%{transform:scale(0.000,1)}75.44%,75.77%{transform:scale(0.250,1)}75.79%,77.15%{transform:scale(0.500,1)}77.17%,80.27%{transform:scale(0.750,1)}80.29%,100%{transform:scale(1.000,1)}}.u.u2{fill:var(--c3);animation-name:u2;transform-origin:737.4px 0}@keyframes u3{83.03%{transform:scale(0.000,1)}83.05%,94.45%{transform:scale(0.500,1)}94.47%,100%{transform:scale(1.000,1)}}.u.u3{fill:var(--c4);animation-name:u3;transform-origin:811.1px 0}.s{shape-rendering:geometricPrecision;/* fill is applied specifically below */ /* Remove default animation from base class */}.pacman{fill:var(--cs);/* Pacman body color */ /* Define the body shape,excluding the mouth wedge */ clip-path:polygon(50% 50%,100% 40%,100% 0%,0% 0%,0% 100%,100% 100%,100% 60%,50% 50%)}.pacman-eye{fill:#fff;/* White eye */ /* No clip-path needed for the eye */}.s:not(.pacman):not(.pacman-eye){fill:var(--cs)}@keyframes pacman-mouth{0%,100%{clip-path:polygon(50% 50%,100% 40%,100% 0%,0% 0%,0% 100%,100% 100%,100% 60%,50% 50%)}50%{clip-path:polygon(50% 50%,100% 0%,0% 0%,0% 100%,100% 100%,50% 50%)}}@keyframes s0{0%{transform:translate(0px,-16px)rotate(90deg)}0.35%{transform:translate(0px,0px)rotate(0deg)}1.04%{transform:translate(32px,0px)rotate(90deg)}2.42%{transform:translate(32px,64px)rotate(0deg)}5.19%{transform:translate(160px,64px)rotate(90deg)}5.54%{transform:translate(160px,80px)rotate(0deg)}6.23%{transform:translate(192px,80px)rotate(270deg)}6.92%{transform:translate(192px,48px)rotate(0deg)}7.61%{transform:translate(224px,48px)rotate(270deg)}8.3%{transform:translate(224px,16px)rotate(180deg)}8.65%{transform:translate(208px,16px)rotate(0deg)}9.34%{transform:translate(208px,-16px)rotate(180deg)}10.03%{transform:translate(176px,-16px)rotate(90deg)}10.38%{transform:translate(176px,0px)rotate(180deg)}10.73%{transform:translate(160px,0px)rotate(90deg)}11.42%{transform:translate(160px,32px)rotate(0deg)}12.8%{transform:translate(224px,32px)rotate(90deg)}13.49%{transform:translate(224px,64px)rotate(0deg)}14.88%{transform:translate(288px,64px)rotate(90deg)}15.22%{transform:translate(288px,80px)rotate(0deg)}15.57%{transform:translate(304px,80px)rotate(270deg)}16.96%{transform:translate(304px,16px)rotate(0deg)}17.3%{transform:translate(320px,16px)rotate(0deg)}17.65%{transform:translate(320px,0px)rotate(180deg)}20.07%{transform:translate(208px,0px)rotate(90deg)}20.76%{transform:translate(208px,32px)rotate(180deg)}21.11%{transform:translate(192px,32px)rotate(0deg)}22.15%{transform:translate(192px,80px)rotate(180deg)}22.49%{transform:translate(176px,80px)rotate(90deg)}22.84%{transform:translate(176px,96px)rotate(180deg)}23.53%{transform:translate(144px,96px)rotate(270deg)}23.88%{transform:translate(144px,80px)rotate(0deg)}33.56%{transform:translate(592px,80px)rotate(270deg)}33.91%{transform:translate(592px,64px)rotate(0deg)}35.99%{transform:translate(688px,64px)rotate(270deg)}36.33%{transform:translate(688px,48px)rotate(180deg)}36.68%{transform:translate(672px,48px)rotate(90deg)}37.02%{transform:translate(672px,64px)rotate(0deg)}37.37%{transform:translate(688px,64px)rotate(90deg)}38.06%{transform:translate(688px,96px)rotate(0deg)}39.1%{transform:translate(736px,96px)rotate(270deg)}40.48%{transform:translate(736px,32px)rotate(180deg)}40.83%{transform:translate(720px,32px)rotate(270deg)}41.18%,76.47%{transform:translate(720px,16px)rotate(0deg)}43.25%{transform:translate(816px,16px)rotate(270deg)}43.6%{transform:translate(816px,0px)rotate(180deg)}43.94%{transform:translate(800px,0px)rotate(90deg)}44.29%{transform:translate(800px,16px)rotate(0deg)}44.64%{transform:translate(816px,16px)rotate(90deg)}46.37%{transform:translate(816px,96px)rotate(180deg)}46.71%{transform:translate(800px,96px)rotate(270deg)}47.06%{transform:translate(800px,80px)rotate(180deg)}60.21%{transform:translate(192px,80px)rotate(90deg)}60.55%{transform:translate(192px,96px)rotate(180deg)}60.9%{transform:translate(176px,96px)rotate(270deg)}61.59%{transform:translate(176px,64px)rotate(0deg)}61.94%{transform:translate(192px,64px)rotate(270deg)}63.32%{transform:translate(192px,0px)rotate(180deg)}63.67%{transform:translate(176px,0px)rotate(90deg)}64.01%{transform:translate(176px,16px)rotate(0deg)}75.43%{transform:translate(704px,16px)rotate(270deg)}75.78%{transform:translate(704px,0px)rotate(0deg)}76.12%{transform:translate(720px,0px)rotate(90deg)}76.82%{transform:translate(704px,16px)rotate(90deg)}77.16%{transform:translate(704px,32px)rotate(0deg)}78.89%{transform:translate(784px,32px)rotate(90deg)}80.28%{transform:translate(784px,96px)rotate(180deg)}80.62%{transform:translate(768px,96px)rotate(270deg)}81.66%{transform:translate(768px,48px)rotate(180deg)}95.85%{transform:translate(112px,48px)rotate(270deg)}96.19%{transform:translate(112px,32px)rotate(180deg)}96.89%{transform:translate(80px,32px)rotate(270deg)}97.23%{transform:translate(80px,16px)rotate(180deg)}97.92%{transform:translate(48px,16px)rotate(270deg)}98.62%{transform:translate(48px,-16px)rotate(180deg)}99.65%{transform:translate(0px,-16px)}}.s.s0.pacman{transform:translate(0px,-16px)rotate(90deg);transform-origin:8.0px 8.0px;animation-name:s0,pacman-mouth;animation-duration:28900ms,500ms;animation-timing-function:linear,steps(1,end);animation-iteration-count:infinite}.s.s0.pacman-eye{transform:translate(0px,-16px)rotate(90deg);transform-origin:8.0px 8.0px;animation-name:s0;animation-duration:28900ms;animation-timing-function:linear;animation-iteration-count:infinite}</style><rect class="c" x="2" y="2" rx="2" ry="2"/><rect class="c" x="2" y="18" rx="2" ry="2"/><rect class="c" x="2" y="34" rx="2" ry="2"/><rect class="c" x="2" y="50" rx="2" ry="2"/><rect class="c" x="2" y="66" rx="2" ry="2"/><rect class="c" x="2" y="82" rx="2" ry="2"/><rect class="c" x="2" y="98" rx="2" ry="2"/><rect class="c" x="18" y="2" rx="2" ry="2"/><rect class="c" x="18" y="18" rx="2" ry="2"/><rect class="c" x="18" y="34" rx="2" ry="2"/><rect class="c" x="18" y="50" rx="2" ry="2"/><rect class="c" x="18" y="66" rx="2" ry="2"/><rect class="c" x="18" y="82" rx="2" ry="2"/><rect class="c" x="18" y="98" rx="2" ry="2"/><rect class="c" x="34" y="2" rx="2" ry="2"/><rect class="c" x="34" y="18" rx="2" ry="2"/><rect class="c" x="34" y="34" rx="2" ry="2"/><rect class="c" x="34" y="50" rx="2" ry="2"/><rect class="c c0" x="34" y="66" rx="2" ry="2"/><rect class="c" x="34" y="82" rx="2" ry="2"/><rect class="c" x="34" y="98" rx="2" ry="2"/><rect class="c" x="50" y="2" rx="2" ry="2"/><rect class="c" x="50" y="18" rx="2" ry="2"/><rect class="c" x="50" y="34" rx="2" ry="2"/><rect class="c" x="50" y="50" rx="2" ry="2"/><rect class="c" x="50" y="66" rx="2" ry="2"/><rect class="c" x="50" y="82" rx="2" ry="2"/><rect class="c" x="50" y="98" rx="2" ry="2"/><rect class="c" x="66" y="2" rx="2" ry="2"/><rect class="c" x="66" y="18" rx="2" ry="2"/><rect class="c" x="66" y="34" rx="2" ry="2"/><rect class="c" x="66" y="50" rx="2" ry="2"/><rect class="c" x="66" y="66" rx="2" ry="2"/><rect class="c" x="66" y="82" rx="2" ry="2"/><rect class="c" x="66" y="98" rx="2" ry="2"/><rect class="c" x="82" y="2" rx="2" ry="2"/><rect class="c" x="82" y="18" rx="2" ry="2"/><rect class="c" x="82" y="34" rx="2" ry="2"/><rect class="c" x="82" y="50" rx="2" ry="2"/><rect class="c" x="82" y="66" rx="2" ry="2"/><rect class="c" x="82" y="82" rx="2" ry="2"/><rect class="c" x="82" y="98" rx="2" ry="2"/><rect class="c" x="98" y="2" rx="2" ry="2"/><rect class="c" x="98" y="18" rx="2" ry="2"/><rect class="c" x="98" y="34" rx="2" ry="2"/><rect class="c" x="98" y="50" rx="2" ry="2"/><rect class="c" x="98" y="66" rx="2" ry="2"/><rect class="c" x="98" y="82" rx="2" ry="2"/><rect class="c" x="98" y="98" rx="2" ry="2"/><rect class="c" x="114" y="2" rx="2" ry="2"/><rect class="c" x="114" y="18" rx="2" ry="2"/><rect class="c" x="114" y="34" rx="2" ry="2"/><rect class="c" x="114" y="50" rx="2" ry="2"/><rect class="c" x="114" y="66" rx="2" ry="2"/><rect class="c" x="114" y="82" rx="2" ry="2"/><rect class="c" x="114" y="98" rx="2" ry="2"/><rect class="c" x="130" y="2" rx="2" ry="2"/><rect class="c" x="130" y="18" rx="2" ry="2"/><rect class="c" x="130" y="34" rx="2" ry="2"/><rect class="c" x="130" y="50" rx="2" ry="2"/><rect class="c" x="130" y="66" rx="2" ry="2"/><rect class="c" x="130" y="82" rx="2" ry="2"/><rect class="c" x="130" y="98" rx="2" ry="2"/><rect class="c" x="146" y="2" rx="2" ry="2"/><rect class="c" x="146" y="18" rx="2" ry="2"/><rect class="c" x="146" y="34" rx="2" ry="2"/><rect class="c" x="146" y="50" rx="2" ry="2"/><rect class="c" x="146" y="66" rx="2" ry="2"/><rect class="c" x="146" y="82" rx="2" ry="2"/><rect class="c c1" x="146" y="98" rx="2" ry="2"/><rect class="c c2" x="162" y="2" rx="2" ry="2"/><rect class="c" x="162" y="18" rx="2" ry="2"/><rect class="c" x="162" y="34" rx="2" ry="2"/><rect class="c" x="162" y="50" rx="2" ry="2"/><rect class="c c3" x="162" y="66" rx="2" ry="2"/><rect class="c" x="162" y="82" rx="2" ry="2"/><rect class="c" x="162" y="98" rx="2" ry="2"/><rect class="c c4" x="178" y="2" rx="2" ry="2"/><rect class="c c5" x="178" y="18" rx="2" ry="2"/><rect class="c" x="178" y="34" rx="2" ry="2"/><rect class="c c6" x="178" y="50" rx="2" ry="2"/><rect class="c c7" x="178" y="66" rx="2" ry="2"/><rect class="c c8" x="178" y="82" rx="2" ry="2"/><rect class="c c9" x="178" y="98" rx="2" ry="2"/><rect class="c ca" x="194" y="2" rx="2" ry="2"/><rect class="c cb" x="194" y="18" rx="2" ry="2"/><rect class="c cc" x="194" y="34" rx="2" ry="2"/><rect class="c cd" x="194" y="50" rx="2" ry="2"/><rect class="c ce" x="194" y="66" rx="2" ry="2"/><rect class="c cf" x="194" y="82" rx="2" ry="2"/><rect class="c cg" x="194" y="98" rx="2" ry="2"/><rect class="c ch" x="210" y="2" rx="2" ry="2"/><rect class="c ci" x="210" y="18" rx="2" ry="2"/><rect class="c" x="210" y="34" rx="2" ry="2"/><rect class="c cj" x="210" y="50" rx="2" ry="2"/><rect class="c" x="210" y="66" rx="2" ry="2"/><rect class="c" x="210" y="82" rx="2" ry="2"/><rect class="c" x="210" y="98" rx="2" ry="2"/><rect class="c" x="226" y="2" rx="2" ry="2"/><rect class="c" x="226" y="18" rx="2" ry="2"/><rect class="c ck" x="226" y="34" rx="2" ry="2"/><rect class="c cl" x="226" y="50" rx="2" ry="2"/><rect class="c cm" x="226" y="66" rx="2" ry="2"/><rect class="c" x="226" y="82" rx="2" ry="2"/><rect class="c" x="226" y="98" rx="2" ry="2"/><rect class="c" x="242" y="2" rx="2" ry="2"/><rect class="c" x="242" y="18" rx="2" ry="2"/><rect class="c" x="242" y="34" rx="2" ry="2"/><rect class="c" x="242" y="50" rx="2" ry="2"/><rect class="c" x="242" y="66" rx="2" ry="2"/><rect class="c" x="242" y="82" rx="2" ry="2"/><rect class="c" x="242" y="98" rx="2" ry="2"/><rect class="c" x="258" y="2" rx="2" ry="2"/><rect class="c" x="258" y="18" rx="2" ry="2"/><rect class="c" x="258" y="34" rx="2" ry="2"/><rect class="c" x="258" y="50" rx="2" ry="2"/><rect class="c" x="258" y="66" rx="2" ry="2"/><rect class="c" x="258" y="82" rx="2" ry="2"/><rect class="c" x="258" y="98" rx="2" ry="2"/><rect class="c" x="274" y="2" rx="2" ry="2"/><rect class="c" x="274" y="18" rx="2" ry="2"/><rect class="c" x="274" y="34" rx="2" ry="2"/><rect class="c" x="274" y="50" rx="2" ry="2"/><rect class="c" x="274" y="66" rx="2" ry="2"/><rect class="c" x="274" y="82" rx="2" ry="2"/><rect class="c" x="274" y="98" rx="2" ry="2"/><rect class="c" x="290" y="2" rx="2" ry="2"/><rect class="c" x="290" y="18" rx="2" ry="2"/><rect class="c" x="290" y="34" rx="2" ry="2"/><rect class="c" x="290" y="50" rx="2" ry="2"/><rect class="c" x="290" y="66" rx="2" ry="2"/><rect class="c cn" x="290" y="82" rx="2" ry="2"/><rect class="c" x="290" y="98" rx="2" ry="2"/><rect class="c" x="306" y="2" rx="2" ry="2"/><rect class="c co" x="306" y="18" rx="2" ry="2"/><rect class="c" x="306" y="34" rx="2" ry="2"/><rect class="c" x="306" y="50" rx="2" ry="2"/><rect class="c" x="306" y="66" rx="2" ry="2"/><rect class="c" x="306" y="82" rx="2" ry="2"/><rect class="c" x="306" y="98" rx="2" ry="2"/><rect class="c cp" x="322" y="2" rx="2" ry="2"/><rect class="c" x="322" y="18" rx="2" ry="2"/><rect class="c" x="322" y="34" rx="2" ry="2"/><rect class="c" x="322" y="50" rx="2" ry="2"/><rect class="c" x="322" y="66" rx="2" ry="2"/><rect class="c" x="322" y="82" rx="2" ry="2"/><rect class="c" x="322" y="98" rx="2" ry="2"/><rect class="c" x="338" y="2" rx="2" ry="2"/><rect class="c" x="338" y="18" rx="2" ry="2"/><rect class="c" x="338" y="34" rx="2" ry="2"/><rect class="c" x="338" y="50" rx="2" ry="2"/><rect class="c" x="338" y="66" rx="2" ry="2"/><rect class="c" x="338" y="82" rx="2" ry="2"/><rect class="c" x="338" y="98" rx="2" ry="2"/><rect class="c" x="354" y="2" rx="2" ry="2"/><rect class="c" x="354" y="18" rx="2" ry="2"/><rect class="c" x="354" y="34" rx="2" ry="2"/><rect class="c" x="354" y="50" rx="2" ry="2"/><rect class="c" x="354" y="66" rx="2" ry="2"/><rect class="c" x="354" y="82" rx="2" ry="2"/><rect class="c" x="354" y="98" rx="2" ry="2"/><rect class="c" x="370" y="2" rx="2" ry="2"/><rect class="c" x="370" y="18" rx="2" ry="2"/><rect class="c" x="370" y="34" rx="2" ry="2"/><rect class="c" x="370" y="50" rx="2" ry="2"/><rect class="c" x="370" y="66" rx="2" ry="2"/><rect class="c" x="370" y="82" rx="2" ry="2"/><rect class="c" x="370" y="98" rx="2" ry="2"/><rect class="c" x="386" y="2" rx="2" ry="2"/><rect class="c" x="386" y="18" rx="2" ry="2"/><rect class="c" x="386" y="34" rx="2" ry="2"/><rect class="c" x="386" y="50" rx="2" ry="2"/><rect class="c" x="386" y="66" rx="2" ry="2"/><rect class="c" x="386" y="82" rx="2" ry="2"/><rect class="c" x="386" y="98" rx="2" ry="2"/><rect class="c" x="402" y="2" rx="2" ry="2"/><rect class="c" x="402" y="18" rx="2" ry="2"/><rect class="c" x="402" y="34" rx="2" ry="2"/><rect class="c" x="402" y="50" rx="2" ry="2"/><rect class="c" x="402" y="66" rx="2" ry="2"/><rect class="c" x="402" y="82" rx="2" ry="2"/><rect class="c" x="402" y="98" rx="2" ry="2"/><rect class="c" x="418" y="2" rx="2" ry="2"/><rect class="c" x="418" y="18" rx="2" ry="2"/><rect class="c" x="418" y="34" rx="2" ry="2"/><rect class="c" x="418" y="50" rx="2" ry="2"/><rect class="c" x="418" y="66" rx="2" ry="2"/><rect class="c" x="418" y="82" rx="2" ry="2"/><rect class="c" x="418" y="98" rx="2" ry="2"/><rect class="c" x="434" y="2" rx="2" ry="2"/><rect class="c" x="434" y="18" rx="2" ry="2"/><rect class="c" x="434" y="34" rx="2" ry="2"/><rect class="c" x="434" y="50" rx="2" ry="2"/><rect class="c" x="434" y="66" rx="2" ry="2"/><rect class="c" x="434" y="82" rx="2" ry="2"/><rect class="c" x="434" y="98" rx="2" ry="2"/><rect class="c" x="450" y="2" rx="2" ry="2"/><rect class="c" x="450" y="18" rx="2" ry="2"/><rect class="c" x="450" y="34" rx="2" ry="2"/><rect class="c" x="450" y="50" rx="2" ry="2"/><rect class="c" x="450" y="66" rx="2" ry="2"/><rect class="c" x="450" y="82" rx="2" ry="2"/><rect class="c" x="450" y="98" rx="2" ry="2"/><rect class="c" x="466" y="2" rx="2" ry="2"/><rect class="c" x="466" y="18" rx="2" ry="2"/><rect class="c" x="466" y="34" rx="2" ry="2"/><rect class="c" x="466" y="50" rx="2" ry="2"/><rect class="c" x="466" y="66" rx="2" ry="2"/><rect class="c" x="466" y="82" rx="2" ry="2"/><rect class="c" x="466" y="98" rx="2" ry="2"/><rect class="c" x="482" y="2" rx="2" ry="2"/><rect class="c" x="482" y="18" rx="2" ry="2"/><rect class="c" x="482" y="34" rx="2" ry="2"/><rect class="c" x="482" y="50" rx="2" ry="2"/><rect class="c" x="482" y="66" rx="2" ry="2"/><rect class="c" x="482" y="82" rx="2" ry="2"/><rect class="c" x="482" y="98" rx="2" ry="2"/><rect class="c" x="498" y="2" rx="2" ry="2"/><rect class="c" x="498" y="18" rx="2" ry="2"/><rect class="c" x="498" y="34" rx="2" ry="2"/><rect class="c" x="498" y="50" rx="2" ry="2"/><rect class="c" x="498" y="66" rx="2" ry="2"/><rect class="c" x="498" y="82" rx="2" ry="2"/><rect class="c" x="498" y="98" rx="2" ry="2"/><rect class="c" x="514" y="2" rx="2" ry="2"/><rect class="c" x="514" y="18" rx="2" ry="2"/><rect class="c" x="514" y="34" rx="2" ry="2"/><rect class="c" x="514" y="50" rx="2" ry="2"/><rect class="c" x="514" y="66" rx="2" ry="2"/><rect class="c" x="514" y="82" rx="2" ry="2"/><rect class="c" x="514" y="98" rx="2" ry="2"/><rect class="c" x="530" y="2" rx="2" ry="2"/><rect class="c" x="530" y="18" rx="2" ry="2"/><rect class="c" x="530" y="34" rx="2" ry="2"/><rect class="c" x="530" y="50" rx="2" ry="2"/><rect class="c" x="530" y="66" rx="2" ry="2"/><rect class="c" x="530" y="82" rx="2" ry="2"/><rect class="c" x="530" y="98" rx="2" ry="2"/><rect class="c" x="546" y="2" rx="2" ry="2"/><rect class="c" x="546" y="18" rx="2" ry="2"/><rect class="c" x="546" y="34" rx="2" ry="2"/><rect class="c" x="546" y="50" rx="2" ry="2"/><rect class="c" x="546" y="66" rx="2" ry="2"/><rect class="c" x="546" y="82" rx="2" ry="2"/><rect class="c" x="546" y="98" rx="2" ry="2"/><rect class="c" x="562" y="2" rx="2" ry="2"/><rect class="c" x="562" y="18" rx="2" ry="2"/><rect class="c" x="562" y="34" rx="2" ry="2"/><rect class="c" x="562" y="50" rx="2" ry="2"/><rect class="c" x="562" y="66" rx="2" ry="2"/><rect class="c" x="562" y="82" rx="2" ry="2"/><rect class="c" x="562" y="98" rx="2" ry="2"/><rect class="c" x="578" y="2" rx="2" ry="2"/><rect class="c" x="578" y="18" rx="2" ry="2"/><rect class="c" x="578" y="34" rx="2" ry="2"/><rect class="c" x="578" y="50" rx="2" ry="2"/><rect class="c" x="578" y="66" rx="2" ry="2"/><rect class="c" x="578" y="82" rx="2" ry="2"/><rect class="c" x="578" y="98" rx="2" ry="2"/><rect class="c" x="594" y="2" rx="2" ry="2"/><rect class="c" x="594" y="18" rx="2" ry="2"/><rect class="c" x="594" y="34" rx="2" ry="2"/><rect class="c" x="594" y="50" rx="2" ry="2"/><rect class="c cq" x="594" y="66" rx="2" ry="2"/><rect class="c" x="594" y="82" rx="2" ry="2"/><rect class="c" x="594" y="98" rx="2" ry="2"/><rect class="c" x="610" y="2" rx="2" ry="2"/><rect class="c" x="610" y="18" rx="2" ry="2"/><rect class="c" x="610" y="34" rx="2" ry="2"/><rect class="c" x="610" y="50" rx="2" ry="2"/><rect class="c" x="610" y="66" rx="2" ry="2"/><rect class="c" x="610" y="82" rx="2" ry="2"/><rect class="c" x="610" y="98" rx="2" ry="2"/><rect class="c" x="626" y="2" rx="2" ry="2"/><rect class="c" x="626" y="18" rx="2" ry="2"/><rect class="c" x="626" y="34" rx="2" ry="2"/><rect class="c" x="626" y="50" rx="2" ry="2"/><rect class="c" x="626" y="66" rx="2" ry="2"/><rect class="c" x="626" y="82" rx="2" ry="2"/><rect class="c" x="626" y="98" rx="2" ry="2"/><rect class="c" x="642" y="2" rx="2" ry="2"/><rect class="c" x="642" y="18" rx="2" ry="2"/><rect class="c" x="642" y="34" rx="2" ry="2"/><rect class="c" x="642" y="50" rx="2" ry="2"/><rect class="c" x="642" y="66" rx="2" ry="2"/><rect class="c" x="642" y="82" rx="2" ry="2"/><rect class="c" x="642" y="98" rx="2" ry="2"/><rect class="c" x="658" y="2" rx="2" ry="2"/><rect class="c" x="658" y="18" rx="2" ry="2"/><rect class="c" x="658" y="34" rx="2" ry="2"/><rect class="c" x="658" y="50" rx="2" ry="2"/><rect class="c" x="658" y="66" rx="2" ry="2"/><rect class="c" x="658" y="82" rx="2" ry="2"/><rect class="c" x="658" y="98" rx="2" ry="2"/><rect class="c" x="674" y="2" rx="2" ry="2"/><rect class="c" x="674" y="18" rx="2" ry="2"/><rect class="c" x="674" y="34" rx="2" ry="2"/><rect class="c" x="674" y="50" rx="2" ry="2"/><rect class="c cr" x="674" y="66" rx="2" ry="2"/><rect class="c cs" x="674" y="82" rx="2" ry="2"/><rect class="c" x="674" y="98" rx="2" ry="2"/><rect class="c" x="690" y="2" rx="2" ry="2"/><rect class="c" x="690" y="18" rx="2" ry="2"/><rect class="c" x="690" y="34" rx="2" ry="2"/><rect class="c ct" x="690" y="50" rx="2" ry="2"/><rect class="c" x="690" y="66" rx="2" ry="2"/><rect class="c cu" x="690" y="82" rx="2" ry="2"/><rect class="c cv" x="690" y="98" rx="2" ry="2"/><rect class="c cw" x="706" y="2" rx="2" ry="2"/><rect class="c cx" x="706" y="18" rx="2" ry="2"/><rect class="c cy" x="706" y="34" rx="2" ry="2"/><rect class="c cz" x="706" y="50" rx="2" ry="2"/><rect class="c" x="706" y="66" rx="2" ry="2"/><rect class="c c10" x="706" y="82" rx="2" ry="2"/><rect class="c c11" x="706" y="98" rx="2" ry="2"/><rect class="c" x="722" y="2" rx="2" ry="2"/><rect class="c" x="722" y="18" rx="2" ry="2"/><rect class="c c12" x="722" y="34" rx="2" ry="2"/><rect class="c" x="722" y="50" rx="2" ry="2"/><rect class="c" x="722" y="66" rx="2" ry="2"/><rect class="c" x="722" y="82" rx="2" ry="2"/><rect class="c" x="722" y="98" rx="2" ry="2"/><rect class="c" x="738" y="2" rx="2" ry="2"/><rect class="c" x="738" y="18" rx="2" ry="2"/><rect class="c" x="738" y="34" rx="2" ry="2"/><rect class="c" x="738" y="50" rx="2" ry="2"/><rect class="c c13" x="738" y="66" rx="2" ry="2"/><rect class="c" x="738" y="82" rx="2" ry="2"/><rect class="c" x="738" y="98" rx="2" ry="2"/><rect class="c" x="754" y="2" rx="2" ry="2"/><rect class="c" x="754" y="18" rx="2" ry="2"/><rect class="c" x="754" y="34" rx="2" ry="2"/><rect class="c" x="754" y="50" rx="2" ry="2"/><rect class="c" x="754" y="66" rx="2" ry="2"/><rect class="c" x="754" y="82" rx="2" ry="2"/><rect class="c" x="754" y="98" rx="2" ry="2"/><rect class="c" x="770" y="2" rx="2" ry="2"/><rect class="c" x="770" y="18" rx="2" ry="2"/><rect class="c" x="770" y="34" rx="2" ry="2"/><rect class="c" x="770" y="50" rx="2" ry="2"/><rect class="c" x="770" y="66" rx="2" ry="2"/><rect class="c" x="770" y="82" rx="2" ry="2"/><rect class="c" x="770" y="98" rx="2" ry="2"/><rect class="c" x="786" y="2" rx="2" ry="2"/><rect class="c" x="786" y="18" rx="2" ry="2"/><rect class="c" x="786" y="34" rx="2" ry="2"/><rect class="c" x="786" y="50" rx="2" ry="2"/><rect class="c" x="786" y="66" rx="2" ry="2"/><rect class="c" x="786" y="82" rx="2" ry="2"/><rect class="c c14" x="786" y="98" rx="2" ry="2"/><rect class="c c15" x="802" y="2" rx="2" ry="2"/><rect class="c c16" x="802" y="18" rx="2" ry="2"/><rect class="c" x="802" y="34" rx="2" ry="2"/><rect class="c" x="802" y="50" rx="2" ry="2"/><rect class="c" x="802" y="66" rx="2" ry="2"/><rect class="c" x="802" y="82" rx="2" ry="2"/><rect class="c" x="802" y="98" rx="2" ry="2"/><rect class="c" x="818" y="2" rx="2" ry="2"/><rect class="c c17" x="818" y="18" rx="2" ry="2"/><rect class="c" x="818" y="34" rx="2" ry="2"/><rect class="c" x="818" y="50" rx="2" ry="2"/><rect class="c" x="818" y="66" rx="2" ry="2"/><rect class="c c18" x="818" y="82" rx="2" ry="2"/><rect class="c c19" x="818" y="98" rx="2" ry="2"/><rect class="c" x="834" y="2" rx="2" ry="2"/><rect class="c" x="834" y="18" rx="2" ry="2"/><rect class="c" x="834" y="34" rx="2" ry="2"/><rect class="c" x="834" y="50" rx="2" ry="2"/><rect class="c" x="834" y="66" rx="2" ry="2"/><rect class="u u0" height="12" width="608.9" x="0.0" y="144"/><rect class="u u1" height="12" width="129.6" x="608.3" y="144"/><rect class="u u2" height="12" width="74.3" x="737.4" y="144"/><rect class="u u3" height="12" width="37.5" x="811.1" y="144"/><rect class="s s0 pacman" x="0.8" y="0.8" width="14.4" height="14.4" rx="7.2" ry="7.2"/><circle class="s s0 pacman-eye" cx="11.2" cy="4.8" r="1.7"/></svg>