<svg viewBox="-16 -32 880 192" width="880" height="192" xmlns="http://www.w3.org/2000/svg"><desc>Generated with https://github.com/Platane/snk</desc><style>:root{--cb:#1b1f230a;--cs:#FFCC00;--ce:#161b22;--c0:#161b22;--c1:#3a3000;--c2:#5e4c00;--c3:#806600;--c4:#ffcc00}.c{shape-rendering:geometricPrecision;fill:var(--ce);stroke-width:1px;stroke:var(--cb);animation:none 28700ms linear infinite;width:12px;height:12px}@keyframes c0{1.73%{fill:var(--c1)}1.75%,100%{fill:var(--ce)}}.c.c0{fill:var(--c1);animation-name:c0}@keyframes c1{22.99%{fill:var(--c1)}23.01%,100%{fill:var(--ce)}}.c.c1{fill:var(--c1);animation-name:c1}@keyframes c2{10.09%{fill:var(--c1)}10.11%,100%{fill:var(--ce)}}.c.c2{fill:var(--c1);animation-name:c2}@keyframes c3{4.52%{fill:var(--c1)}4.54%,100%{fill:var(--ce)}}.c.c3{fill:var(--c1);animation-name:c3}@keyframes c4{9.75%{fill:var(--c1)}9.77%,100%{fill:var(--ce)}}.c.c4{fill:var(--c1);animation-name:c4}@keyframes c5{64.45%{fill:var(--c2)}64.47%,100%{fill:var(--ce)}}.c.c5{fill:var(--c2);animation-name:c5}@keyframes c6{95.11%{fill:var(--c4)}95.13%,100%{fill:var(--ce)}}.c.c6{fill:var(--c4);animation-name:c6}@keyframes c7{62.01%{fill:var(--c2)}62.03%,100%{fill:var(--ce)}}.c.c7{fill:var(--c2);animation-name:c7}@keyframes c8{5.22%{fill:var(--c1)}5.24%,100%{fill:var(--ce)}}.c.c8{fill:var(--c1);animation-name:c8}@keyframes c9{22.29%{fill:var(--c1)}22.31%,100%{fill:var(--ce)}}.c.c9{fill:var(--c1);animation-name:c9}@keyframes ca{63.75%{fill:var(--c2)}63.77%,100%{fill:var(--ce)}}.c.ca{fill:var(--c2);animation-name:ca}@keyframes cb{63.4%{fill:var(--c2)}63.42%,100%{fill:var(--ce)}}.c.cb{fill:var(--c2);animation-name:cb}@keyframes cc{11.49%{fill:var(--c1)}11.51%,100%{fill:var(--ce)}}.c.cc{fill:var(--c1);animation-name:cc}@keyframes cd{6.26%{fill:var(--c1)}6.28%,100%{fill:var(--ce)}}.c.cd{fill:var(--c1);animation-name:cd}@keyframes ce{5.91%{fill:var(--c1)}5.93%,100%{fill:var(--ce)}}.c.ce{fill:var(--c1);animation-name:ce}@keyframes cf{5.56%{fill:var(--c1)}5.58%,100%{fill:var(--ce)}}.c.cf{fill:var(--c1);animation-name:cf}@keyframes cg{60.97%{fill:var(--c2)}60.99%,100%{fill:var(--ce)}}.c.cg{fill:var(--c2);animation-name:cg}@keyframes ch{8.35%{fill:var(--c1)}8.37%,100%{fill:var(--ce)}}.c.ch{fill:var(--c1);animation-name:ch}@keyframes ci{8%{fill:var(--c1)}8.02%,100%{fill:var(--ce)}}.c.ci{fill:var(--c1);animation-name:ci}@keyframes cj{6.61%{fill:var(--c1)}6.63%,100%{fill:var(--ce)}}.c.cj{fill:var(--c1);animation-name:cj}@keyframes ck{7.31%{fill:var(--c1)}7.33%,100%{fill:var(--ce)}}.c.ck{fill:var(--c1);animation-name:ck}@keyframes cl{6.96%{fill:var(--c1)}6.98%,100%{fill:var(--ce)}}.c.cl{fill:var(--c1);animation-name:cl}@keyframes cm{12.88%{fill:var(--c1)}12.9%,100%{fill:var(--ce)}}.c.cm{fill:var(--c1);animation-name:cm}@keyframes cn{14.62%{fill:var(--c1)}14.64%,100%{fill:var(--ce)}}.c.cn{fill:var(--c1);animation-name:cn}@keyframes co{16.37%{fill:var(--c1)}16.39%,100%{fill:var(--ce)}}.c.co{fill:var(--c1);animation-name:co}@keyframes cp{17.06%{fill:var(--c1)}17.08%,100%{fill:var(--ce)}}.c.cp{fill:var(--c1);animation-name:cp}@keyframes cq{33.44%{fill:var(--c1)}33.46%,100%{fill:var(--ce)}}.c.cq{fill:var(--c1);animation-name:cq}@keyframes cr{35.18%{fill:var(--c1)}35.2%,100%{fill:var(--ce)}}.c.cr{fill:var(--c1);animation-name:cr}@keyframes cs{50.16%{fill:var(--c2)}50.18%,100%{fill:var(--ce)}}.c.cs{fill:var(--c2);animation-name:cs}@keyframes ct{35.88%{fill:var(--c1)}35.9%,100%{fill:var(--ce)}}.c.ct{fill:var(--c1);animation-name:ct}@keyframes cu{37.27%{fill:var(--c1)}37.29%,100%{fill:var(--ce)}}.c.cu{fill:var(--c1);animation-name:cu}@keyframes cv{37.62%{fill:var(--c1)}37.64%,100%{fill:var(--ce)}}.c.cv{fill:var(--c1);animation-name:cv}@keyframes cw{76.3%{fill:var(--c3)}76.32%,100%{fill:var(--ce)}}.c.cw{fill:var(--c3);animation-name:cw}@keyframes cx{75.95%{fill:var(--c3)}75.97%,100%{fill:var(--ce)}}.c.cx{fill:var(--c3);animation-name:cx}@keyframes cy{77.69%{fill:var(--c3)}77.71%,100%{fill:var(--ce)}}.c.cy{fill:var(--c3);animation-name:cy}@keyframes cz{83.61%{fill:var(--c4)}83.63%,100%{fill:var(--ce)}}.c.cz{fill:var(--c4);animation-name:cz}@keyframes c10{49.47%{fill:var(--c2)}49.49%,100%{fill:var(--ce)}}.c.c10{fill:var(--c2);animation-name:c10}@keyframes c11{37.97%{fill:var(--c1)}37.99%,100%{fill:var(--ce)}}.c.c11{fill:var(--c1);animation-name:c11}@keyframes c12{40.41%{fill:var(--c1)}40.43%,100%{fill:var(--ce)}}.c.c12{fill:var(--c1);animation-name:c12}@keyframes c13{39.36%{fill:var(--c1)}39.38%,100%{fill:var(--ce)}}.c.c13{fill:var(--c1);animation-name:c13}@keyframes c14{80.83%{fill:var(--c3)}80.85%,100%{fill:var(--ce)}}.c.c14{fill:var(--c3);animation-name:c14}@keyframes c15{43.54%{fill:var(--c1)}43.56%,100%{fill:var(--ce)}}.c.c15{fill:var(--c1);animation-name:c15}@keyframes c16{42.5%{fill:var(--c1)}42.52%,100%{fill:var(--ce)}}.c.c16{fill:var(--c1);animation-name:c16}@keyframes c17{42.85%{fill:var(--c1)}42.87%,100%{fill:var(--ce)}}.c.c17{fill:var(--c1);animation-name:c17}@keyframes c18{45.63%{fill:var(--c1)}45.65%,100%{fill:var(--ce)}}.c.c18{fill:var(--c1);animation-name:c18}@keyframes c19{46.68%{fill:var(--c1)}46.7%,100%{fill:var(--ce)}}.c.c19{fill:var(--c1);animation-name:c19}@keyframes c1a{45.98%{fill:var(--c1)}46%,100%{fill:var(--ce)}}.c.c1a{fill:var(--c1);animation-name:c1a}.u{transform-origin:0 0;transform:scale(0,1);animation:none linear 28700ms infinite}@keyframes u0{1.73%{transform:scale(0.000,1)}1.75%,4.52%{transform:scale(0.029,1)}4.54%,5.22%{transform:scale(0.059,1)}5.24%,5.56%{transform:scale(0.088,1)}5.58%,5.91%{transform:scale(0.118,1)}5.93%,6.26%{transform:scale(0.147,1)}6.28%,6.61%{transform:scale(0.176,1)}6.63%,6.96%{transform:scale(0.206,1)}6.98%,7.31%{transform:scale(0.235,1)}7.33%,8%{transform:scale(0.265,1)}8.02%,8.35%{transform:scale(0.294,1)}8.37%,9.75%{transform:scale(0.324,1)}9.77%,10.09%{transform:scale(0.353,1)}10.11%,11.49%{transform:scale(0.382,1)}11.51%,12.88%{transform:scale(0.412,1)}12.9%,14.62%{transform:scale(0.441,1)}14.64%,16.37%{transform:scale(0.471,1)}16.39%,17.06%{transform:scale(0.500,1)}17.08%,22.29%{transform:scale(0.529,1)}22.31%,22.99%{transform:scale(0.559,1)}23.01%,33.44%{transform:scale(0.588,1)}33.46%,35.18%{transform:scale(0.618,1)}35.2%,35.88%{transform:scale(0.647,1)}35.9%,37.27%{transform:scale(0.676,1)}37.29%,37.62%{transform:scale(0.706,1)}37.64%,37.97%{transform:scale(0.735,1)}37.99%,39.36%{transform:scale(0.765,1)}39.38%,40.41%{transform:scale(0.794,1)}40.43%,42.5%{transform:scale(0.824,1)}42.52%,42.85%{transform:scale(0.853,1)}42.87%,43.54%{transform:scale(0.882,1)}43.56%,45.63%{transform:scale(0.912,1)}45.65%,45.98%{transform:scale(0.941,1)}46%,46.68%{transform:scale(0.971,1)}46.7%,100%{transform:scale(1.000,1)}}.u.u0{fill:var(--c1);animation-name:u0;transform-origin:0.0px 0}@keyframes u1{49.47%{transform:scale(0.000,1)}49.49%,50.16%{transform:scale(0.143,1)}50.18%,60.97%{transform:scale(0.286,1)}60.99%,62.01%{transform:scale(0.429,1)}62.03%,63.4%{transform:scale(0.571,1)}63.42%,63.75%{transform:scale(0.714,1)}63.77%,64.45%{transform:scale(0.857,1)}64.47%,100%{transform:scale(1.000,1)}}.u.u1{fill:var(--c2);animation-name:u1;transform-origin:613.4px 0}@keyframes u2{75.95%{transform:scale(0.000,1)}75.97%,76.3%{transform:scale(0.250,1)}76.32%,77.69%{transform:scale(0.500,1)}77.71%,80.83%{transform:scale(0.750,1)}80.85%,100%{transform:scale(1.000,1)}}.u.u2{fill:var(--c3);animation-name:u2;transform-origin:739.7px 0}@keyframes u3{83.61%{transform:scale(0.000,1)}83.63%,95.11%{transform:scale(0.500,1)}95.13%,100%{transform:scale(1.000,1)}}.u.u3{fill:var(--c4);animation-name:u3;transform-origin:811.9px 0}.s{shape-rendering:geometricPrecision;/* fill is applied specifically below */ /* Remove default animation from base class */}.pacman{fill:var(--cs);/* Pacman body color */ /* Define the body shape,excluding the mouth wedge */ clip-path:polygon(50% 50%,100% 40%,100% 0%,0% 0%,0% 100%,100% 100%,100% 60%,50% 50%)}.pacman-eye{fill:#fff;/* White eye */ /* No clip-path needed for the eye */}.s:not(.pacman):not(.pacman-eye){fill:var(--cs)}@keyframes pacman-mouth{0%,100%{clip-path:polygon(50% 50%,100% 40%,100% 0%,0% 0%,0% 100%,100% 100%,100% 60%,50% 50%)}50%{clip-path:polygon(50% 50%,100% 0%,0% 0%,0% 100%,100% 100%,50% 50%)}}@keyframes s0{0%{transform:translate(0px,-16px)rotate(90deg)}1.74%{transform:translate(0px,64px)rotate(0deg)}4.53%{transform:translate(128px,64px)rotate(90deg)}4.88%{transform:translate(128px,80px)rotate(0deg)}5.57%{transform:translate(160px,80px)rotate(270deg)}6.27%{transform:translate(160px,48px)rotate(0deg)}6.97%{transform:translate(192px,48px)rotate(270deg)}7.67%{transform:translate(192px,16px)rotate(180deg)}8.01%{transform:translate(176px,16px)rotate(270deg)}8.71%{transform:translate(176px,-16px)rotate(180deg)}9.41%{transform:translate(144px,-16px)rotate(90deg)}9.76%{transform:translate(144px,0px)rotate(180deg)}10.1%{transform:translate(128px,0px)rotate(90deg)}10.8%{transform:translate(128px,32px)rotate(0deg)}12.2%{transform:translate(192px,32px)rotate(90deg)}12.89%{transform:translate(192px,64px)rotate(0deg)}14.29%{transform:translate(256px,64px)rotate(90deg)}14.63%{transform:translate(256px,80px)rotate(0deg)}14.98%{transform:translate(272px,80px)rotate(270deg)}16.38%{transform:translate(272px,16px)rotate(0deg)}16.72%{transform:translate(288px,16px)rotate(270deg)}17.07%{transform:translate(288px,0px)rotate(180deg)}19.51%{transform:translate(176px,0px)rotate(90deg)}20.21%{transform:translate(176px,32px)rotate(180deg)}20.56%{transform:translate(160px,32px)rotate(90deg)}21.6%{transform:translate(160px,80px)rotate(180deg)}21.95%{transform:translate(144px,80px)rotate(90deg)}22.3%{transform:translate(144px,96px)rotate(180deg)}23%{transform:translate(112px,96px)rotate(270deg)}23.34%{transform:translate(112px,80px)rotate(0deg)}33.1%{transform:translate(560px,80px)rotate(270deg)}33.45%{transform:translate(560px,64px)rotate(0deg)}35.54%{transform:translate(656px,64px)rotate(270deg)}35.89%{transform:translate(656px,48px)rotate(180deg)}36.24%{transform:translate(640px,48px)rotate(90deg)}36.59%{transform:translate(640px,64px)rotate(0deg)}36.93%{transform:translate(656px,64px)rotate(90deg)}37.63%{transform:translate(656px,96px)rotate(0deg)}38.68%{transform:translate(704px,96px)rotate(270deg)}40.07%{transform:translate(704px,32px)rotate(180deg)}40.42%{transform:translate(688px,32px)rotate(270deg)}40.77%{transform:translate(688px,16px)rotate(0deg)}42.86%{transform:translate(784px,16px)rotate(270deg)}43.21%{transform:translate(784px,0px)rotate(180deg)}43.55%{transform:translate(768px,0px)rotate(0deg)}43.9%{transform:translate(768px,16px)rotate(0deg)}44.25%{transform:translate(784px,16px)rotate(0deg)}45.64%{transform:translate(784px,80px)rotate(0deg)}45.99%{transform:translate(800px,80px)rotate(90deg)}46.34%{transform:translate(800px,96px)rotate(180deg)}46.69%{transform:translate(784px,96px)rotate(270deg)}47.04%{transform:translate(784px,80px)rotate(180deg)}60.63%{transform:translate(160px,80px)rotate(90deg)}60.98%{transform:translate(160px,96px)rotate(180deg)}61.32%{transform:translate(144px,96px)rotate(270deg)}62.02%{transform:translate(144px,64px)rotate(0deg)}62.37%{transform:translate(160px,64px)rotate(270deg)}63.76%{transform:translate(160px,0px)rotate(180deg)}64.11%{transform:translate(144px,0px)rotate(90deg)}64.46%{transform:translate(144px,16px)rotate(0deg)}75.96%{transform:translate(672px,16px)rotate(270deg)}76.31%{transform:translate(672px,0px)rotate(0deg)}76.66%{transform:translate(688px,0px)rotate(90deg)}77%{transform:translate(688px,16px)rotate(180deg)}77.35%{transform:translate(672px,16px)rotate(90deg)}77.7%{transform:translate(672px,32px)rotate(0deg)}79.44%{transform:translate(752px,32px)rotate(90deg)}80.84%{transform:translate(752px,96px)rotate(180deg)}81.18%{transform:translate(736px,96px)rotate(270deg)}82.23%{transform:translate(736px,48px)rotate(180deg)}96.52%{transform:translate(80px,48px)rotate(270deg)}96.86%{transform:translate(80px,32px)rotate(180deg)}97.56%{transform:translate(48px,32px)rotate(270deg)}98.61%{transform:translate(48px,-16px)rotate(180deg)}99.65%{transform:translate(0px,-16px)}}.s.s0.pacman{transform:translate(0px,-16px)rotate(90deg);transform-origin:8.0px 8.0px;animation-name:s0,pacman-mouth;animation-duration:28700ms,500ms;animation-timing-function:linear,steps(1,end);animation-iteration-count:infinite}.s.s0.pacman-eye{transform:translate(0px,-16px)rotate(90deg);transform-origin:8.0px 8.0px;animation-name:s0;animation-duration:28700ms;animation-timing-function:linear;animation-iteration-count:infinite}</style><rect class="c" x="2" y="2" rx="2" ry="2"/><rect class="c" x="2" y="18" rx="2" ry="2"/><rect class="c" x="2" y="34" rx="2" ry="2"/><rect class="c" x="2" y="50" rx="2" ry="2"/><rect class="c c0" x="2" y="66" rx="2" ry="2"/><rect class="c" x="2" y="82" rx="2" ry="2"/><rect class="c" x="2" y="98" rx="2" ry="2"/><rect class="c" x="18" y="2" rx="2" ry="2"/><rect class="c" x="18" y="18" rx="2" ry="2"/><rect class="c" x="18" y="34" rx="2" ry="2"/><rect class="c" x="18" y="50" rx="2" ry="2"/><rect class="c" x="18" y="66" rx="2" ry="2"/><rect class="c" x="18" y="82" rx="2" ry="2"/><rect class="c" x="18" y="98" rx="2" ry="2"/><rect class="c" x="34" y="2" rx="2" ry="2"/><rect class="c" x="34" y="18" rx="2" ry="2"/><rect class="c" x="34" y="34" rx="2" ry="2"/><rect class="c" x="34" y="50" rx="2" ry="2"/><rect class="c" x="34" y="66" rx="2" ry="2"/><rect class="c" x="34" y="82" rx="2" ry="2"/><rect class="c" x="34" y="98" rx="2" ry="2"/><rect class="c" x="50" y="2" rx="2" ry="2"/><rect class="c" x="50" y="18" rx="2" ry="2"/><rect class="c" x="50" y="34" rx="2" ry="2"/><rect class="c" x="50" y="50" rx="2" ry="2"/><rect class="c" x="50" y="66" rx="2" ry="2"/><rect class="c" x="50" y="82" rx="2" ry="2"/><rect class="c" x="50" y="98" rx="2" ry="2"/><rect class="c" x="66" y="2" rx="2" ry="2"/><rect class="c" x="66" y="18" rx="2" ry="2"/><rect class="c" x="66" y="34" rx="2" ry="2"/><rect class="c" x="66" y="50" rx="2" ry="2"/><rect class="c" x="66" y="66" rx="2" ry="2"/><rect class="c" x="66" y="82" rx="2" ry="2"/><rect class="c" x="66" y="98" rx="2" ry="2"/><rect class="c" x="82" y="2" rx="2" ry="2"/><rect class="c" x="82" y="18" rx="2" ry="2"/><rect class="c" x="82" y="34" rx="2" ry="2"/><rect class="c" x="82" y="50" rx="2" ry="2"/><rect class="c" x="82" y="66" rx="2" ry="2"/><rect class="c" x="82" y="82" rx="2" ry="2"/><rect class="c" x="82" y="98" rx="2" ry="2"/><rect class="c" x="98" y="2" rx="2" ry="2"/><rect class="c" x="98" y="18" rx="2" ry="2"/><rect class="c" x="98" y="34" rx="2" ry="2"/><rect class="c" x="98" y="50" rx="2" ry="2"/><rect class="c" x="98" y="66" rx="2" ry="2"/><rect class="c" x="98" y="82" rx="2" ry="2"/><rect class="c" x="98" y="98" rx="2" ry="2"/><rect class="c" x="114" y="2" rx="2" ry="2"/><rect class="c" x="114" y="18" rx="2" ry="2"/><rect class="c" x="114" y="34" rx="2" ry="2"/><rect class="c" x="114" y="50" rx="2" ry="2"/><rect class="c" x="114" y="66" rx="2" ry="2"/><rect class="c" x="114" y="82" rx="2" ry="2"/><rect class="c c1" x="114" y="98" rx="2" ry="2"/><rect class="c c2" x="130" y="2" rx="2" ry="2"/><rect class="c" x="130" y="18" rx="2" ry="2"/><rect class="c" x="130" y="34" rx="2" ry="2"/><rect class="c" x="130" y="50" rx="2" ry="2"/><rect class="c c3" x="130" y="66" rx="2" ry="2"/><rect class="c" x="130" y="82" rx="2" ry="2"/><rect class="c" x="130" y="98" rx="2" ry="2"/><rect class="c c4" x="146" y="2" rx="2" ry="2"/><rect class="c c5" x="146" y="18" rx="2" ry="2"/><rect class="c" x="146" y="34" rx="2" ry="2"/><rect class="c c6" x="146" y="50" rx="2" ry="2"/><rect class="c c7" x="146" y="66" rx="2" ry="2"/><rect class="c c8" x="146" y="82" rx="2" ry="2"/><rect class="c c9" x="146" y="98" rx="2" ry="2"/><rect class="c ca" x="162" y="2" rx="2" ry="2"/><rect class="c cb" x="162" y="18" rx="2" ry="2"/><rect class="c cc" x="162" y="34" rx="2" ry="2"/><rect class="c cd" x="162" y="50" rx="2" ry="2"/><rect class="c ce" x="162" y="66" rx="2" ry="2"/><rect class="c cf" x="162" y="82" rx="2" ry="2"/><rect class="c cg" x="162" y="98" rx="2" ry="2"/><rect class="c ch" x="178" y="2" rx="2" ry="2"/><rect class="c ci" x="178" y="18" rx="2" ry="2"/><rect class="c" x="178" y="34" rx="2" ry="2"/><rect class="c cj" x="178" y="50" rx="2" ry="2"/><rect class="c" x="178" y="66" rx="2" ry="2"/><rect class="c" x="178" y="82" rx="2" ry="2"/><rect class="c" x="178" y="98" rx="2" ry="2"/><rect class="c" x="194" y="2" rx="2" ry="2"/><rect class="c" x="194" y="18" rx="2" ry="2"/><rect class="c ck" x="194" y="34" rx="2" ry="2"/><rect class="c cl" x="194" y="50" rx="2" ry="2"/><rect class="c cm" x="194" y="66" rx="2" ry="2"/><rect class="c" x="194" y="82" rx="2" ry="2"/><rect class="c" x="194" y="98" rx="2" ry="2"/><rect class="c" x="210" y="2" rx="2" ry="2"/><rect class="c" x="210" y="18" rx="2" ry="2"/><rect class="c" x="210" y="34" rx="2" ry="2"/><rect class="c" x="210" y="50" rx="2" ry="2"/><rect class="c" x="210" y="66" rx="2" ry="2"/><rect class="c" x="210" y="82" rx="2" ry="2"/><rect class="c" x="210" y="98" rx="2" ry="2"/><rect class="c" x="226" y="2" rx="2" ry="2"/><rect class="c" x="226" y="18" rx="2" ry="2"/><rect class="c" x="226" y="34" rx="2" ry="2"/><rect class="c" x="226" y="50" rx="2" ry="2"/><rect class="c" x="226" y="66" rx="2" ry="2"/><rect class="c" x="226" y="82" rx="2" ry="2"/><rect class="c" x="226" y="98" rx="2" ry="2"/><rect class="c" x="242" y="2" rx="2" ry="2"/><rect class="c" x="242" y="18" rx="2" ry="2"/><rect class="c" x="242" y="34" rx="2" ry="2"/><rect class="c" x="242" y="50" rx="2" ry="2"/><rect class="c" x="242" y="66" rx="2" ry="2"/><rect class="c" x="242" y="82" rx="2" ry="2"/><rect class="c" x="242" y="98" rx="2" ry="2"/><rect class="c" x="258" y="2" rx="2" ry="2"/><rect class="c" x="258" y="18" rx="2" ry="2"/><rect class="c" x="258" y="34" rx="2" ry="2"/><rect class="c" x="258" y="50" rx="2" ry="2"/><rect class="c" x="258" y="66" rx="2" ry="2"/><rect class="c cn" x="258" y="82" rx="2" ry="2"/><rect class="c" x="258" y="98" rx="2" ry="2"/><rect class="c" x="274" y="2" rx="2" ry="2"/><rect class="c co" x="274" y="18" rx="2" ry="2"/><rect class="c" x="274" y="34" rx="2" ry="2"/><rect class="c" x="274" y="50" rx="2" ry="2"/><rect class="c" x="274" y="66" rx="2" ry="2"/><rect class="c" x="274" y="82" rx="2" ry="2"/><rect class="c" x="274" y="98" rx="2" ry="2"/><rect class="c cp" x="290" y="2" rx="2" ry="2"/><rect class="c" x="290" y="18" rx="2" ry="2"/><rect class="c" x="290" y="34" rx="2" ry="2"/><rect class="c" x="290" y="50" rx="2" ry="2"/><rect class="c" x="290" y="66" rx="2" ry="2"/><rect class="c" x="290" y="82" rx="2" ry="2"/><rect class="c" x="290" y="98" rx="2" ry="2"/><rect class="c" x="306" y="2" rx="2" ry="2"/><rect class="c" x="306" y="18" rx="2" ry="2"/><rect class="c" x="306" y="34" rx="2" ry="2"/><rect class="c" x="306" y="50" rx="2" ry="2"/><rect class="c" x="306" y="66" rx="2" ry="2"/><rect class="c" x="306" y="82" rx="2" ry="2"/><rect class="c" x="306" y="98" rx="2" ry="2"/><rect class="c" x="322" y="2" rx="2" ry="2"/><rect class="c" x="322" y="18" rx="2" ry="2"/><rect class="c" x="322" y="34" rx="2" ry="2"/><rect class="c" x="322" y="50" rx="2" ry="2"/><rect class="c" x="322" y="66" rx="2" ry="2"/><rect class="c" x="322" y="82" rx="2" ry="2"/><rect class="c" x="322" y="98" rx="2" ry="2"/><rect class="c" x="338" y="2" rx="2" ry="2"/><rect class="c" x="338" y="18" rx="2" ry="2"/><rect class="c" x="338" y="34" rx="2" ry="2"/><rect class="c" x="338" y="50" rx="2" ry="2"/><rect class="c" x="338" y="66" rx="2" ry="2"/><rect class="c" x="338" y="82" rx="2" ry="2"/><rect class="c" x="338" y="98" rx="2" ry="2"/><rect class="c" x="354" y="2" rx="2" ry="2"/><rect class="c" x="354" y="18" rx="2" ry="2"/><rect class="c" x="354" y="34" rx="2" ry="2"/><rect class="c" x="354" y="50" rx="2" ry="2"/><rect class="c" x="354" y="66" rx="2" ry="2"/><rect class="c" x="354" y="82" rx="2" ry="2"/><rect class="c" x="354" y="98" rx="2" ry="2"/><rect class="c" x="370" y="2" rx="2" ry="2"/><rect class="c" x="370" y="18" rx="2" ry="2"/><rect class="c" x="370" y="34" rx="2" ry="2"/><rect class="c" x="370" y="50" rx="2" ry="2"/><rect class="c" x="370" y="66" rx="2" ry="2"/><rect class="c" x="370" y="82" rx="2" ry="2"/><rect class="c" x="370" y="98" rx="2" ry="2"/><rect class="c" x="386" y="2" rx="2" ry="2"/><rect class="c" x="386" y="18" rx="2" ry="2"/><rect class="c" x="386" y="34" rx="2" ry="2"/><rect class="c" x="386" y="50" rx="2" ry="2"/><rect class="c" x="386" y="66" rx="2" ry="2"/><rect class="c" x="386" y="82" rx="2" ry="2"/><rect class="c" x="386" y="98" rx="2" ry="2"/><rect class="c" x="402" y="2" rx="2" ry="2"/><rect class="c" x="402" y="18" rx="2" ry="2"/><rect class="c" x="402" y="34" rx="2" ry="2"/><rect class="c" x="402" y="50" rx="2" ry="2"/><rect class="c" x="402" y="66" rx="2" ry="2"/><rect class="c" x="402" y="82" rx="2" ry="2"/><rect class="c" x="402" y="98" rx="2" ry="2"/><rect class="c" x="418" y="2" rx="2" ry="2"/><rect class="c" x="418" y="18" rx="2" ry="2"/><rect class="c" x="418" y="34" rx="2" ry="2"/><rect class="c" x="418" y="50" rx="2" ry="2"/><rect class="c" x="418" y="66" rx="2" ry="2"/><rect class="c" x="418" y="82" rx="2" ry="2"/><rect class="c" x="418" y="98" rx="2" ry="2"/><rect class="c" x="434" y="2" rx="2" ry="2"/><rect class="c" x="434" y="18" rx="2" ry="2"/><rect class="c" x="434" y="34" rx="2" ry="2"/><rect class="c" x="434" y="50" rx="2" ry="2"/><rect class="c" x="434" y="66" rx="2" ry="2"/><rect class="c" x="434" y="82" rx="2" ry="2"/><rect class="c" x="434" y="98" rx="2" ry="2"/><rect class="c" x="450" y="2" rx="2" ry="2"/><rect class="c" x="450" y="18" rx="2" ry="2"/><rect class="c" x="450" y="34" rx="2" ry="2"/><rect class="c" x="450" y="50" rx="2" ry="2"/><rect class="c" x="450" y="66" rx="2" ry="2"/><rect class="c" x="450" y="82" rx="2" ry="2"/><rect class="c" x="450" y="98" rx="2" ry="2"/><rect class="c" x="466" y="2" rx="2" ry="2"/><rect class="c" x="466" y="18" rx="2" ry="2"/><rect class="c" x="466" y="34" rx="2" ry="2"/><rect class="c" x="466" y="50" rx="2" ry="2"/><rect class="c" x="466" y="66" rx="2" ry="2"/><rect class="c" x="466" y="82" rx="2" ry="2"/><rect class="c" x="466" y="98" rx="2" ry="2"/><rect class="c" x="482" y="2" rx="2" ry="2"/><rect class="c" x="482" y="18" rx="2" ry="2"/><rect class="c" x="482" y="34" rx="2" ry="2"/><rect class="c" x="482" y="50" rx="2" ry="2"/><rect class="c" x="482" y="66" rx="2" ry="2"/><rect class="c" x="482" y="82" rx="2" ry="2"/><rect class="c" x="482" y="98" rx="2" ry="2"/><rect class="c" x="498" y="2" rx="2" ry="2"/><rect class="c" x="498" y="18" rx="2" ry="2"/><rect class="c" x="498" y="34" rx="2" ry="2"/><rect class="c" x="498" y="50" rx="2" ry="2"/><rect class="c" x="498" y="66" rx="2" ry="2"/><rect class="c" x="498" y="82" rx="2" ry="2"/><rect class="c" x="498" y="98" rx="2" ry="2"/><rect class="c" x="514" y="2" rx="2" ry="2"/><rect class="c" x="514" y="18" rx="2" ry="2"/><rect class="c" x="514" y="34" rx="2" ry="2"/><rect class="c" x="514" y="50" rx="2" ry="2"/><rect class="c" x="514" y="66" rx="2" ry="2"/><rect class="c" x="514" y="82" rx="2" ry="2"/><rect class="c" x="514" y="98" rx="2" ry="2"/><rect class="c" x="530" y="2" rx="2" ry="2"/><rect class="c" x="530" y="18" rx="2" ry="2"/><rect class="c" x="530" y="34" rx="2" ry="2"/><rect class="c" x="530" y="50" rx="2" ry="2"/><rect class="c" x="530" y="66" rx="2" ry="2"/><rect class="c" x="530" y="82" rx="2" ry="2"/><rect class="c" x="530" y="98" rx="2" ry="2"/><rect class="c" x="546" y="2" rx="2" ry="2"/><rect class="c" x="546" y="18" rx="2" ry="2"/><rect class="c" x="546" y="34" rx="2" ry="2"/><rect class="c" x="546" y="50" rx="2" ry="2"/><rect class="c" x="546" y="66" rx="2" ry="2"/><rect class="c" x="546" y="82" rx="2" ry="2"/><rect class="c" x="546" y="98" rx="2" ry="2"/><rect class="c" x="562" y="2" rx="2" ry="2"/><rect class="c" x="562" y="18" rx="2" ry="2"/><rect class="c" x="562" y="34" rx="2" ry="2"/><rect class="c" x="562" y="50" rx="2" ry="2"/><rect class="c cq" x="562" y="66" rx="2" ry="2"/><rect class="c" x="562" y="82" rx="2" ry="2"/><rect class="c" x="562" y="98" rx="2" ry="2"/><rect class="c" x="578" y="2" rx="2" ry="2"/><rect class="c" x="578" y="18" rx="2" ry="2"/><rect class="c" x="578" y="34" rx="2" ry="2"/><rect class="c" x="578" y="50" rx="2" ry="2"/><rect class="c" x="578" y="66" rx="2" ry="2"/><rect class="c" x="578" y="82" rx="2" ry="2"/><rect class="c" x="578" y="98" rx="2" ry="2"/><rect class="c" x="594" y="2" rx="2" ry="2"/><rect class="c" x="594" y="18" rx="2" ry="2"/><rect class="c" x="594" y="34" rx="2" ry="2"/><rect class="c" x="594" y="50" rx="2" ry="2"/><rect class="c" x="594" y="66" rx="2" ry="2"/><rect class="c" x="594" y="82" rx="2" ry="2"/><rect class="c" x="594" y="98" rx="2" ry="2"/><rect class="c" x="610" y="2" rx="2" ry="2"/><rect class="c" x="610" y="18" rx="2" ry="2"/><rect class="c" x="610" y="34" rx="2" ry="2"/><rect class="c" x="610" y="50" rx="2" ry="2"/><rect class="c" x="610" y="66" rx="2" ry="2"/><rect class="c" x="610" y="82" rx="2" ry="2"/><rect class="c" x="610" y="98" rx="2" ry="2"/><rect class="c" x="626" y="2" rx="2" ry="2"/><rect class="c" x="626" y="18" rx="2" ry="2"/><rect class="c" x="626" y="34" rx="2" ry="2"/><rect class="c" x="626" y="50" rx="2" ry="2"/><rect class="c" x="626" y="66" rx="2" ry="2"/><rect class="c" x="626" y="82" rx="2" ry="2"/><rect class="c" x="626" y="98" rx="2" ry="2"/><rect class="c" x="642" y="2" rx="2" ry="2"/><rect class="c" x="642" y="18" rx="2" ry="2"/><rect class="c" x="642" y="34" rx="2" ry="2"/><rect class="c" x="642" y="50" rx="2" ry="2"/><rect class="c cr" x="642" y="66" rx="2" ry="2"/><rect class="c cs" x="642" y="82" rx="2" ry="2"/><rect class="c" x="642" y="98" rx="2" ry="2"/><rect class="c" x="658" y="2" rx="2" ry="2"/><rect class="c" x="658" y="18" rx="2" ry="2"/><rect class="c" x="658" y="34" rx="2" ry="2"/><rect class="c ct" x="658" y="50" rx="2" ry="2"/><rect class="c" x="658" y="66" rx="2" ry="2"/><rect class="c cu" x="658" y="82" rx="2" ry="2"/><rect class="c cv" x="658" y="98" rx="2" ry="2"/><rect class="c cw" x="674" y="2" rx="2" ry="2"/><rect class="c cx" x="674" y="18" rx="2" ry="2"/><rect class="c cy" x="674" y="34" rx="2" ry="2"/><rect class="c cz" x="674" y="50" rx="2" ry="2"/><rect class="c" x="674" y="66" rx="2" ry="2"/><rect class="c c10" x="674" y="82" rx="2" ry="2"/><rect class="c c11" x="674" y="98" rx="2" ry="2"/><rect class="c" x="690" y="2" rx="2" ry="2"/><rect class="c" x="690" y="18" rx="2" ry="2"/><rect class="c c12" x="690" y="34" rx="2" ry="2"/><rect class="c" x="690" y="50" rx="2" ry="2"/><rect class="c" x="690" y="66" rx="2" ry="2"/><rect class="c" x="690" y="82" rx="2" ry="2"/><rect class="c" x="690" y="98" rx="2" ry="2"/><rect class="c" x="706" y="2" rx="2" ry="2"/><rect class="c" x="706" y="18" rx="2" ry="2"/><rect class="c" x="706" y="34" rx="2" ry="2"/><rect class="c" x="706" y="50" rx="2" ry="2"/><rect class="c c13" x="706" y="66" rx="2" ry="2"/><rect class="c" x="706" y="82" rx="2" ry="2"/><rect class="c" x="706" y="98" rx="2" ry="2"/><rect class="c" x="722" y="2" rx="2" ry="2"/><rect class="c" x="722" y="18" rx="2" ry="2"/><rect class="c" x="722" y="34" rx="2" ry="2"/><rect class="c" x="722" y="50" rx="2" ry="2"/><rect class="c" x="722" y="66" rx="2" ry="2"/><rect class="c" x="722" y="82" rx="2" ry="2"/><rect class="c" x="722" y="98" rx="2" ry="2"/><rect class="c" x="738" y="2" rx="2" ry="2"/><rect class="c" x="738" y="18" rx="2" ry="2"/><rect class="c" x="738" y="34" rx="2" ry="2"/><rect class="c" x="738" y="50" rx="2" ry="2"/><rect class="c" x="738" y="66" rx="2" ry="2"/><rect class="c" x="738" y="82" rx="2" ry="2"/><rect class="c" x="738" y="98" rx="2" ry="2"/><rect class="c" x="754" y="2" rx="2" ry="2"/><rect class="c" x="754" y="18" rx="2" ry="2"/><rect class="c" x="754" y="34" rx="2" ry="2"/><rect class="c" x="754" y="50" rx="2" ry="2"/><rect class="c" x="754" y="66" rx="2" ry="2"/><rect class="c" x="754" y="82" rx="2" ry="2"/><rect class="c c14" x="754" y="98" rx="2" ry="2"/><rect class="c c15" x="770" y="2" rx="2" ry="2"/><rect class="c c16" x="770" y="18" rx="2" ry="2"/><rect class="c" x="770" y="34" rx="2" ry="2"/><rect class="c" x="770" y="50" rx="2" ry="2"/><rect class="c" x="770" y="66" rx="2" ry="2"/><rect class="c" x="770" y="82" rx="2" ry="2"/><rect class="c" x="770" y="98" rx="2" ry="2"/><rect class="c" x="786" y="2" rx="2" ry="2"/><rect class="c c17" x="786" y="18" rx="2" ry="2"/><rect class="c" x="786" y="34" rx="2" ry="2"/><rect class="c" x="786" y="50" rx="2" ry="2"/><rect class="c" x="786" y="66" rx="2" ry="2"/><rect class="c c18" x="786" y="82" rx="2" ry="2"/><rect class="c c19" x="786" y="98" rx="2" ry="2"/><rect class="c" x="802" y="2" rx="2" ry="2"/><rect class="c" x="802" y="18" rx="2" ry="2"/><rect class="c" x="802" y="34" rx="2" ry="2"/><rect class="c" x="802" y="50" rx="2" ry="2"/><rect class="c" x="802" y="66" rx="2" ry="2"/><rect class="c c1a" x="802" y="82" rx="2" ry="2"/><rect class="c" x="802" y="98" rx="2" ry="2"/><rect class="c" x="818" y="2" rx="2" ry="2"/><rect class="c" x="818" y="18" rx="2" ry="2"/><rect class="c" x="818" y="34" rx="2" ry="2"/><rect class="c" x="818" y="50" rx="2" ry="2"/><rect class="c" x="818" y="66" rx="2" ry="2"/><rect class="c" x="818" y="82" rx="2" ry="2"/><rect class="c" x="818" y="98" rx="2" ry="2"/><rect class="c" x="834" y="2" rx="2" ry="2"/><rect class="c" x="834" y="18" rx="2" ry="2"/><rect class="c" x="834" y="34" rx="2" ry="2"/><rect class="c" x="834" y="50" rx="2" ry="2"/><rect class="c" x="834" y="66" rx="2" ry="2"/><rect class="u u0" height="12" width="614.0" x="0.0" y="144"/><rect class="u u1" height="12" width="126.9" x="613.4" y="144"/><rect class="u u2" height="12" width="72.8" x="739.7" y="144"/><rect class="u u3" height="12" width="36.7" x="811.9" y="144"/><rect class="s s0 pacman" x="0.8" y="0.8" width="14.4" height="14.4" rx="7.2" ry="7.2"/><circle class="s s0 pacman-eye" cx="11.2" cy="4.8" r="1.7"/></svg>